<?xml version="1.0" ?><!DOCTYPE svg  PUBLIC '-//W3C//DTD SVG 1.1//EN'  'http://www.w3.org/Graphics/SVG/1.1/DTD/svg11.dtd'><svg enable-background="new 0 0 32 32"  id="Слой_1" version="1.1" viewBox="0 0 32 32"  xml:space="preserve" xmlns="http://www.w3.org/2000/svg" xmlns:xlink="http://www.w3.org/1999/xlink"><path clip-rule="evenodd" d="M31,30h-3h-7.455H13v-0.025C6.883,29.711,2,24.682,2,18.5  C2,12.318,6.883,7.289,13,7.025V7h7.545H28h0.638l-3.294,3.294c-0.389,0.389-0.389,1.025,0,1.414s1.025,0.389,1.414,0l4.95-4.95  c0.201-0.201,0.293-0.467,0.287-0.732c0.007-0.265-0.086-0.531-0.287-0.732l-4.95-4.95c-0.389-0.389-1.025-0.389-1.414,0  s-0.389,1.025,0,1.414L28.586,5H13c-0.059,0-0.109,0.024-0.165,0.034C5.69,5.383,0,11.269,0,18.5C0,25.956,6.044,32,13.5,32  c0.135,0,0.266-0.016,0.401-0.02C13.935,31.983,13.965,32,14,32h17c0.55,0,1-0.45,1-1S31.55,30,31,30z" fill="#121313" fill-rule="evenodd"/><g/><g/><g/><g/><g/><g/></svg>